<svg id="_x33_0" enable-background="new 0 0 64 64" height="512" viewBox="0 0 64 64" width="512" xmlns="http://www.w3.org/2000/svg"><g><g><g><path d="m30.96 26h-.01c-.97 2.24-2.74 4.04-4.95 5.07l.19.93h11.6v5.71l-.01.01c.78.49 1.48 1.12 2.07 1.86.16.2.31.4.45.61.97 1.45 1.49 3.15 1.49 4.91v.9 6 6h20v-18-14z" fill="#e6e9ed"/></g><g><path d="m38 32v5.71l-.01.01c-.97-.66-2.07-1.1-3.24-1.31l-4.97-.9-2.78-.51-.6-3z" fill="#ff826e"/></g><g><path d="m42 46h6v6h-6z" fill="#f0d0b4"/></g><g><path d="m52 46h6v6h-6z" fill="#f0d0b4"/></g><g><path d="m10 62h-8v-16.9c0-2.01.68-3.95 1.94-5.52 1.33-1.66 3.21-2.79 5.31-3.17l4.97-.9 2.78 6.49 2.11-1.68.89 3.68-3 18z" fill="#fcd770"/></g><g><path d="m34 62h-7l-3-18 .89-3.68 2.11 1.68 2.78-6.49 4.97.9c1.17.21 2.27.65 3.24 1.31.78.49 1.48 1.12 2.07 1.86.16.2.31.4.45.61.97 1.45 1.49 3.15 1.49 4.91v.9 6 6 4z" fill="#fcd770"/></g><g><path d="m62 12v14h-30.83-.01c.28-.63.5-1.3.64-2h1.23c.83 0 1.58-.34 2.12-.88.55-.54.88-1.29.88-2.12 0-.89-.38-1.69-1-2.22l.01-.01.13-.77h8.83c1.83 2.43 4.73 4 8 4 5.52 0 10-4.48 10-10z" fill="#b4dd7f"/></g><g><path d="m52 2c5.52 0 10 4.48 10 10s-4.48 10-10 10c-3.27 0-6.17-1.57-8-4-1.25-1.67-2-3.75-2-6 0-5.52 4.48-10 10-10z" fill="#ff826e"/></g><g><path d="m36 12.16c0 .56-.05 1.12-.14 1.67l-.69 4.17-.13.77-.01.01c-.53-.49-1.23-.78-2-.78h-1.2-.01c-.4-1.17-1.51-2-2.82-2h-5.03c-1.57 0-3.1-.37-4.47-1.06-1.37-.68-2.58-1.68-3.53-2.94-1.96 1.48-3.29 3.62-3.77 6h-1.17c-.8 0-1.53.32-2.06.82l-.83-4.99c-.09-.55-.14-1.11-.14-1.67 0-2.8 1.14-5.34 2.98-7.18s4.38-2.98 7.18-2.98h7.68c5.61 0 10.16 4.55 10.16 10.16z" fill="#656d78"/></g><g><path d="m35.03 18.78c.62.53 1 1.33 1 2.22 0 .83-.33 1.58-.88 2.12-.54.54-1.29.88-2.12.88h-1.23c.13-.64.2-1.31.2-2v-3c0-.35-.06-.69-.18-1h.01 1.2c.77 0 1.47.29 2 .78z" fill="#f0d0b4"/></g><g><path d="m32 19v3c0 .69-.07 1.36-.2 2-.14.7-.36 1.37-.64 2-.97 2.24-2.74 4.04-4.95 5.07-1.28.6-2.7.93-4.21.93s-2.93-.33-4.21-.93c-1.07-.5-2.04-1.18-2.86-2-1.36-1.36-2.33-3.11-2.73-5.07-.13-.64-.2-1.31-.2-2v-2.02c0-.67.07-1.34.2-1.98.48-2.38 1.81-4.52 3.77-6 .95 1.26 2.16 2.26 3.53 2.94 1.37.69 2.9 1.06 4.47 1.06h5.03c1.31 0 2.42.83 2.82 2 .12.31.18.65.18 1z" fill="#f0d0b4"/></g><g><path d="m27 35 2.78.51-2.78 6.49-2.11-1.68-2.89-2.32z" fill="#ffc729"/></g><g><path d="m26.4 32 .6 3-5 3-5-3 .79-3.93c1.28.6 2.7.93 4.21.93s2.93-.33 4.21-.93z" fill="#f0d0b4"/></g><g><path d="m24 44 3 18h-10l3-18z" fill="#ff826e"/></g><g><path d="m22 38 2.89 2.32-.89 3.68h-4l-.89-3.68z" fill="#fc6e51"/></g><g><path d="m22 38-2.89 2.32-2.11 1.68-2.78-6.49 2.78-.51z" fill="#ffc729"/></g><g><path d="m11.03 18h1.17c-.13.64-.2 1.31-.2 1.98v2.02c0 .69.07 1.36.2 2h-1.17c-.83 0-1.58-.34-2.12-.88-.55-.54-.88-1.29-.88-2.12 0-.86.36-1.63.94-2.18.53-.5 1.26-.82 2.06-.82z" fill="#f0d0b4"/></g></g><g><path d="m57.748 8.665-1.496-1.33-7.295 8.208-2.25-2.25-1.414 1.414 3.75 3.75z"/><path d="m63 12c0-6.065-4.935-11-11-11s-11 4.935-11 11c0 1.801.444 3.498 1.214 5h-5.867l.501-3.006c.101-.606.152-1.223.152-1.835 0-6.153-5.006-11.159-11.159-11.159h-7.682c-6.153 0-11.159 5.006-11.159 11.159 0 .611.051 1.229.152 1.835l.756 4.537c-.541.682-.877 1.533-.877 2.469 0 2.206 1.794 4 4 4h.396c.805 2.832 2.711 5.201 5.232 6.608l-.506 2.53-7.08 1.287c-2.334.425-4.436 1.679-5.919 3.531-1.389 1.736-2.154 3.918-2.154 6.142v17.902h42v-4h20zm-11-9c4.962 0 9 4.038 9 9s-4.038 9-9 9-9-4.038-9-9 4.038-9 9-9zm0 20c3.72 0 7.008-1.861 9-4.695v6.695h-27.969c2.206 0 4-1.794 4-4 0-.732-.212-1.409-.556-2h7.047c2.019 2.441 5.07 4 8.478 4zm-19-1v-3h.031c1.103 0 2 .897 2 2s-.897 2-2 2h-.081c.029-.33.05-.662.05-1zm-14.841-19h7.682c5.05 0 9.159 4.109 9.159 9.159 0 .502-.042 1.009-.125 1.506l-.593 3.555c-.395-.131-.811-.22-1.251-.22h-.587c-.694-1.19-1.97-2-3.444-2h-5.031c-2.818 0-5.509-1.346-7.2-3.6l-.602-.803-.801.605c-1.924 1.454-3.286 3.514-3.934 5.798h-.402c-.461 0-.898.094-1.31.239l-.596-3.573c-.082-.498-.124-1.005-.124-1.507 0-5.05 4.109-9.159 9.159-9.159zm-7.128 20c-1.103 0-2-.897-2-2s.897-2 2-2h.027c-.03.324-.058.648-.058.975v2.025c0 .338.021.67.051 1zm1.969-1v-2.025c0-2.484 1.048-4.874 2.843-6.562 2.07 2.263 5.036 3.587 8.126 3.587h5.031c1.103 0 2 .897 2 2v3c0 4.962-4.038 9-9 9s-9-4.038-9-9zm24 14.055c-.663-.281-1.355-.499-2.073-.629l-7.08-1.288-.227-1.138h9.38zm-16.153 8.945h2.306l2.667 16h-7.64zm2.367-2h-2.428l-.559-2.301 1.773-1.418 1.772 1.418zm.534-4.883 3.444-2.066 1.178.214-1.771 4.133zm-1.748-5.117c1.212 0 2.375-.205 3.467-.568l.415 2.073-3.882 2.329-3.881-2.329.415-2.073c1.091.363 2.254.568 3.466.568zm-5.192 3.051 3.444 2.066-2.851 2.281-1.771-4.133zm-13.808 9.047c0-1.771.609-3.509 1.716-4.892 1.181-1.477 2.855-2.476 4.715-2.813l4.181-.76 2.987 6.969 1.906-1.524.476 1.96-2.828 16.962h-5.153v-14h-2v14h-6zm38 15.902h-6v-14h-2v14h-5.153l-2.827-16.963.476-1.96 1.906 1.524 2.987-6.969 4.181.761c1.859.337 3.534 1.336 4.715 2.813 1.106 1.383 1.715 3.12 1.715 4.892zm2-14h4v4h-4zm0 10v-4h6v-8h-6.004c-.022-2.19-.781-4.333-2.15-6.044-.539-.673-1.162-1.265-1.846-1.769v-6.187h-10.695c1.462-1.027 2.66-2.4 3.481-4h29.214v30z"/><path d="m51 53h8v-8h-8zm2-6h4v4h-4z"/><path d="m43 31h16v2h-16z"/><path d="m43 35h16v2h-16z"/><path d="m43 39h8v2h-8z"/><path d="m53 39h2v2h-2z"/><path d="m57 39h2v2h-2z"/></g></g></svg>