<svg id="Color" enable-background="new 0 0 24 24" height="512" viewBox="0 0 24 24" width="512" xmlns="http://www.w3.org/2000/svg"><path d="m19.25 2.998h-17.525c-.952 0-1.725.773-1.725 1.725v17.551c0 .951.773 1.725 1.724 1.725h17.551c.951 0 1.725-.773 1.725-1.725v-17.526c0-.965-.785-1.75-1.75-1.75z" fill="#eceff1"/><g fill="#90a4ae"><path d="m3.75 16h13.5c.41 0 .75.34.75.75s-.34.75-.75.75h-13.5c-.41 0-.75-.34-.75-.75s.34-.75.75-.75z"/><path d="m3 13.75c0-.41.34-.75.75-.75h13.5c.41 0 .75.34.75.75s-.34.75-.75.75h-13.5c-.41 0-.75-.34-.75-.75z"/><path d="m3.75 19h13.5c.41 0 .75.34.75.75s-.34.75-.75.75h-13.5c-.41 0-.75-.34-.75-.75s.34-.75.75-.75z"/><path d="m17.25 10c.41 0 .75.34.75.75s-.34.75-.75.75h-13.5c-.41 0-.75-.34-.75-.75s.34-.75.75-.75z"/><path d="m3 7.75c0-.41.34-.75.75-.75h9.5c.41 0 .75.34.75.75s-.34.75-.75.75h-9.5c-.41 0-.75-.34-.75-.75z"/></g><path d="m10.5 2.998h-8.775c-.952 0-1.725.773-1.725 1.725v17.551c0 .951.773 1.725 1.724 1.725h8.776v-3.499h-6.75c-.41 0-.75-.34-.75-.75s.34-.75.75-.75h6.75v-1.5h-6.75c-.41 0-.75-.34-.75-.75s.34-.75.75-.75h6.75v-1.5h-6.75c-.41 0-.75-.34-.75-.75s.34-.75.75-.75h6.75v-1.5h-6.75c-.41 0-.75-.34-.75-.75s.34-.75.75-.75h6.75v-1.5h-6.75c-.41 0-.75-.34-.75-.75s.34-.75.75-.75h6.75z" fill="#cdd0d2"/><path d="m10.5 16h-6.75c-.41 0-.75.34-.75.75s.34.75.75.75h6.75z" fill="#7d8f97"/><path d="m10.5 13h-6.75c-.41 0-.75.34-.75.75s.34.75.75.75h6.75z" fill="#7d8f97"/><path d="m10.5 19h-6.75c-.41 0-.75.34-.75.75s.34.75.75.75h6.75z" fill="#7d8f97"/><path d="m10.5 10h-6.75c-.41 0-.75.34-.75.75s.34.75.75.75h6.75z" fill="#7d8f97"/><path d="m10.5 7h-6.75c-.41 0-.75.34-.75.75s.34.75.75.75h6.75z" fill="#7d8f97"/><circle cx="20" cy="4" fill="#f44336" r="4"/><path d="m20 0c-2.206 0-4 1.794-4 4s1.794 4 4 4z" fill="#d43a2f"/></svg>